<mxfile host="app.diagrams.net" modified="2021-01-12T03:35:21.068Z" agent="5.0 (Windows NT 10.0; Win64; x64) AppleWebKit/537.36 (KHTML, like Gecko) Chrome/87.0.4280.141 Safari/537.36" etag="EDqor0SwDdknujp8TjP-" version="14.1.9" type="github">
  <diagram id="o6vOqTlNtzsDGir9jlwr" name="Page-1">
    <mxGraphModel dx="1422" dy="1963" grid="1" gridSize="10" guides="1" tooltips="1" connect="1" arrows="1" fold="1" page="1" pageScale="1" pageWidth="827" pageHeight="1169" math="0" shadow="0">
      <root>
        <mxCell id="0" />
        <mxCell id="1" parent="0" />
        <mxCell id="EX8O4b1PGBb1F0dFALzU-15" value="" style="shape=image;verticalLabelPosition=bottom;labelBackgroundColor=#ffffff;verticalAlign=top;aspect=fixed;imageAspect=0;image=data:image/png,iVBORw0KGgoAAAANSUhEUgAAAjQAAAA3CAYAAAAbgNCEAAAT3UlEQVR4Ae1cS5MUx7XWyuu7uzv/Acf9DY7w4kY4vLW3d1N447gRtoQl8fCjbSFLWOYtCUslLMBIIEASGDV4QKAXAiRE87jIGMQgBgEtGwmFECDe342TlVmVlZWnunumKzuHORORUZmVmeecPPV9md9U98wDkB/JgGRAMiAZkAxIBiQD0zwDD0zz+CV8yYBkQDIgGZAMSAYkA/AKmnv37oHK3bt3Vblz5w6kSA6awIDBGF0Jc7H+CCcE/03g32dzunCCuCq8EF74MNzEvX54URE0BFAKJu38C//1wgk88MRhKZKDRjHw3aeP46l9XYU7Am1sP8IJ2QNC74Oxc8KIGTkrhBshudGLFyVBQxv37du3sXDveXx/3Wm8ceo6zlyGFMlBoxh4d+ImfvLaBB7adQ63bt1SbwVjETXCCeH/KPbAmDlhxIycFcKN0NzoxYtc0JjfQq9du4bvPf8xtp26jtOXIUVyEAQD+y/cwn8uO46rV68qUU14HPWPcEL4P8o9MEZOGDFDb2bkrBB+jIIfdbzIBQ296r958ya++OIL9fHCqS8BKZKDkBigV5eXLl3CjRs3onhLI5wQ/IfEv89XbJwgQSO8EF74sBryHseLkqAhxX3+/HklaE5+AUiRHITEAIGU8Ec4jOG7NBSDcEI4EJIDrq/YOGEEjfBCeOFiNWSb40UuaOgV4jfffINPP/1UCZoTlwApkoOQGCCQEv4Ih4THUf8IJwT/IfHv8xUbJ4iTwgvhhQ+rIe9xvCgJmitXrmB8fFwJmo//DUiRHITEAIGU8Ec4jEXQCCeEAyE54PqKjRNG0AgvhBcuVkO2OV5UBM3p06eVoDn+L0CK5CAkBgikhL/YBI1wQngQkge2r9g4YQsa4YXwwsZqyDrHC1bQHPsckCI5CIkBDqSj+uiJ3hKRuDIbd8hciC/hHmEgNk74BE0wrB5vY06S4nU5m2b82czxghU0R7qAFMlBSAxwII1F0ITMhfgS7hEGYuOET9AIVmcAVo9lYvK1SHQBxwtW0HS6gBTJQUgMcCCNRdCEzIX4Eu4RBmLjhE/QCFZnAFaPtfFokmJzJLqA4wUraA5dBKRIDkJigANpLIImZC7El3CPMBAbJ3yCZuhYPUqHZ4JZuix8U2NB3U+xic4mXU83tPJxj27o5vfVGHWGdZHOT5DbsM+1N9N87qykhfSo5Wd+ioXzTQzaZy97pbg5e7atDhaadS5r83Ga9eYxGRvW/MTc02vg1mZscX5L8xLMWtbBoYu2H2tdpfuOfzvPDdQ5XrCC5uAFQIrkICQGOJDGImhC5kJ8CfcIA7FxwidohovVDp5MEjz5pn7+R7I3AxvpPKrUEzy6vpudU+ogTrHxQhfPz3fmz29jZ+U8Iz8tPH9E+6H5ZpzyY2wMYs/MAQ7m8Zi4rT4VS2a3HL87xuJAKSa6X45r5/pWEf+FmrWpvsKPmpfn28m9WoPOkZ17K37znMr+rbgreR9OH8cLVtB8eB6QIjkIiQEOpLEImpC5EF/CPcJAbJzwCZqhYnWXFha+8+dwG48kKV6hPlVv4bnDGidWnzpcl3XU+UX1R9Z3PWeZPrx3eXDm2O7LnuU/y0cmKlR8jj3VXxnfxXMkxHzx9Fhvxd/5mrVV8lszVtnROXbjddv2WN+zG/I9jhesoDlwHpAiOQiJAQ6ksQiakLkQX8I9wkBsnPAJmmFidUy/aRjznT/6EN1AfXbdbVPf/DbGznfx5/kt/PkwoOzmH7N09NnWwRPmXpLgiV0acz7bvexpoVDETb61TdeeG69aazHeG6trQ7XNR2Lmmq01ex7+tVXzW/hV8yp2tc0B/XvXoNY5HF5zvGAFzb7PACmSg5AY4EAai6AJmQvxJdwjDMTGCZ+gGSpWd6aYNa+N7b7zRx+q66nPrnva65e1sHJnG49wtlz75DdJ4bX9GdDTnhvPZx38IWlh5WFPrJ54933Wxcp5Cf6wk8G9a99tu+ux2/baKvmlOLVfZVPHrObXrGEQ/3YsQ6pzvGAFzd5zwOCli2fnJXh852Tm8nNeXqoV6Lw22k5cdX18/B08nrTw7GHeJz83/jmTy0mvdTWfMw6ksQiaqWEiNDfq/dkYebaGX1Nbcy9MNd9vr9PdOya/tua5YGKLjRM+QWNiHc6VcmudIYfbeNjs1aqe4mU6A+y6r60O8QQPv9z1n2O2XZqvD32v7by/xt45J+5e9s5l/Mzj0/GyZ6e7Xj0/H2/3163NibP9cvalamXHjvkckHFHn5OuzTr/lK+GC8cLVtC8NwEMXrp4hgTN2GTmcnOyzeOZQ77+uj7feHNvsvPM/Aavh4jAKV6aVP4prqbW1pTdIpccSGMRNIPzoVjbexOhuVHnz36Wdt2ON4L6DOaCwVpsnPAJGhPr0K7quZuPUazzxMaDXae90m2rfbDHPjpW/iun/Iyp2CIuEE962FPzTNwt1NszNs0v6ykerzs72Zg8/igf3NryXOl5S1P1y30Wa7ZnmL8ue/iljnWeF33F+U45YfxP+vzqb9/heMEKmncmgMFLF0/PS7BgbDJzmTn6Qa7zxVPX5xuf3+tgQdLC04cYn/m4EfRPek061qnOZ9fefM44kMYiaAbng42fwNyYqPFnY8Sus8/eXkfA+lRjm+p8Nh/Nc8FgLTZO+ASNiVWuU+FGDV9ZHE7Fn5kbDsvDxAfHC1bQvH0WGLx0sYIEzZJC+f5yXbew81Ebv8wVXSZ8Mh80r4UV64p5s5Z08DY7HkwfPRyjGFOstddgK9YlqRI0Kz7yrJF8zkuxYB7ZMTb6tJu0ULJpx7+kneVmTPu046GYab1nbT+2Lfu+iYmJPV9/ggXrKN/WeBWPbuv6inXF/3EoPSvKnR2jmzN7be667bwPUOdAGougGZwP9jMKyA2Vc8Zf6bkZrmRX+kWktEYaOxO4QPnqxYfAXDDPITZO+ASNiVWuDn8G2PvePqv56nJwIBt9+Fc4t84WhWvrjBi2v4bscbxgBc2eT4HBSxfLSQjMa2OLmt/BY0mCx/5Otuw6sOdgdtiuUeP0vCRF1s7G0gFbHufE5LGR+QK20EHtjUP3JS0sP+jYo1iUTRMz9Wex8XYtO3/PvtBWXbvxaew6uaB5Jp7Smnr55+LXeXRt2W29TpVjWreKweSf7JZjVPk0MTp91bmeuNRzrr/PgTQWQTM4H+z1BuaGxq2XAxUc2M/dilljxGD/vuWCxXs/H8JzwWAtNk74BI2JVa4Wd/rY78r5Kp8z5b6p2K3OzfZy88uMdX4NHHPVdpNx27Y5XrCCZvcZYPDSxfK5CR7bUcxdvSR7+7B7R4pZc9t43Wu3Ou/1v7bUW4vdevNd7Ztn99l1NZY2oexhVX1bfa5dZUfPo746u2f0RmetN89ZZb01Y5Ud7dP157btsW7sbrzuXLut6jXr9MbPxNgrJl+cnns/+t/fWP+50xAujuv3H/zTJPhQ8GD3mSrGG+VGnb8KDlLw/KrBSOm51+Dbi6XyPpHzxrZpx+liW+Gnhsfu+F626vjgjb9ZLph8xMwJ+q7F//z0Z9jxj2tT5IbNE6mbZy9XHgsDC5pd48DgpYtlcxP8fkcx91USJos7UNe5bbzqtVudt0tvIq9+mL3JeXEcmQ3zkcriDnZZfVndPfxaWPahnlfy3cHvE6uPs0mxKh9+u1l+yFbRb9ZeXa+zxordLJ7Smnr4Vz6Mb8pHPj4F5ctvq48+k2smZ/mzIR+qOGvL75v+/q4cSGN5QzM4H+x1V3PUKDfGeX8lXFgcquDJ6iuwVWA9+/Kgxq165tOUCxS7d60ZV6pcLvaPprhgsBYbJ3xvaEyscrX5LvUm8cDxgn1DM3YaGLx0sXRugt9tL+auWpxg9touxrZnb2g2ee1W521amwmhsQ/amJ2kWOWbZ/fZdXdsxXcHv0taWPpBEWe+VteO23Zt223yY2L1+tS5UTZt/1Y8rj+3bfvz1e3xdp3G2m277vZR2xu/jtmde9qK3xdTn/c4kMYiaHKM9Lme8vgqxhvlxukaf/bzs+vuutw+t+2Ot9vTiQsUt7s2uz0CLhjsxMYJn6AxscrVc57YnJD6JDSFP6ccL1hBs+MTYPDSxZK5ifpo6RWaf4DESIJWm2x10Mrrpq+FJQeoz5lnj1U2UqzyxVPqy2xkvox9M6/s+5U19EVY49tZZ8lmEZvXrhpr2WlrQaNi9fnUuSiNA1Ytot96tR3Xps6N13/PnPhi0Dlx1+m27WfwCVDOWdnuDmc9g+MmewYcSGMRNJNdVzbPwbjKd4PccDll+7OftV138VTpq+GYGjtNuUDrdtdaapfxHoILBmuxccInaEysM/Ga7d3WmedyaOA2Yc3i0cDznfPsPp3P8YIVNNtPAYMXveEtKv5aafaabmFnfyZwzN+5t94wPmrmqTkpXvDFU+nLNh7zKnzJfmMf2G75nr2mnYHG7jf2KzbJRo3dN4q1KlFi27R8zlqUWj714aY/Lpq9pqOEYJaPoq/IT41/E7e5OvFvUOIt+5ggW7fOpTMuy4+TZyv+Ss6svsq6TSwDXjmQxiJoBueDhb9TNRinPJXymaB49jXz3GdYynef8+psePtqsDhduZDn38K/u3bVtnnUQr6/WH3D4oLBWmyc8AkaE+vMuxIXLByU+Gdzf5B6EzYH8T89xnK8YAXNG6eAcKWLxXOzTTycz5DrI18ZUBfvD+13+vjjQBqLoBkNNu9HbggX+sVSbJzwCZp+13LfjdvfxkNJinSoZ6Vwox+ccLxgBc22k0C40sWiOQla20L6bNiXAnsLi/ZrP9uyj6OeD5rXhtc45LVwII1F0ITjg/3c7gNuCBcmvZfGxgmfoBkNL2yOjKCuMF18Qb61OhM3+f6uxY5q6/qi1cX//HpodbfAhDobtC39Jj8/N0p+rPNkyHvvdHuGHC9YQbPln0C40sVTcxL8dltIn837WmcBmF5FP7WveZ/hntnw18KBNBZBM5rc3h/cEC5Mji+xccInaEbDi8nlc6ix7mvjwSTFSjor7brbVn0JHlzdzc5U/cutmvfPDn6bFGdfxhNzVpT7tpTmRbD+oBqhvF6OF6ygee0EIEVyEBIDHEhjETQhcyG+hHuEgdg44RM0Mxar72eC5lk6K+2621Z9LfzxfY1pe+zfUsya08ba/Lzt4DeJHmuPU/1WXz5+ZvKE4wUraDb/A5AiOQiJAQ6ksQiakLkQX8I9wkBsnPAJmhmL1b2ZoHmGzkq77rZr+la/2FKCZnV+3nbw66SFhXuBzVszsVP0dbFwToJfbxVucLxgBc3GjwEpkoOQGOBAGougCZkL8SXcIwzExgmfoJmxWH23jV8kKVbQWWnX3XZdnxYtL+bnbSZonnzXY/Njqy8fPzN5wvGCFTQbjgNSJAchMcCBNBZBEzIX4ku4RxiIjRM+QTNjsaqFynJ1VnbwqyTBr7ZkuF21ir4AnEL1lcYBG0pt37wWnniX7JT7NmzJ/rAk8zez+cHxghU0L/0fIEVyEBIDHEhjETQhcyG+hHuEgdg44RM0Mxar77Tx8yTFUn1WpkrEZH+t9PNVbcw3fc64l7xte14Lj7+j8a/Gmr+msu7P8POZ4wUraP56DJAiOQiJAQ6ksQiakLkQX8I9wkBsnPAJGsGqYDU0BjhesIJmzVFAiuQgJAY4kMYiaELmQnwJ9wgDsXHCJ2gEq4LV0BjgeMEKmr8cAaRIDkJigANpLIImZC7El3CPMBAbJ3yCRrAqWA2NAY4XrKB54TAgRXIQEgMcSGMRNCFzIb6Ee4SB2DjhEzSCVcFqaAxwvGAFzXMdQIrkICQGOJDGImhC5kJ8CfcIA7FxwidoBKuC1dAY4HjBCpqVhwApkoOQGOBAGougCZkL8SXcIwzExgmfoBGsClZDY4DjBStonvkIkCI5CIkBDqSxCJqQuRBfwj3CQGyc8AkawapgNTQGOF5UBM34+Dj+409HseD9W1h+EFIkB0EwsOiDu/jOH4+C8HflyhXcuXNnVDom90sxUCzCCdkHRrEXxsgJW9AIL4QXsfGiImjOnDmDH6/9CP+94SKeOnAXSz+EFMlB4xj4yeuX8MONZ0D4i03QCCdkDxjFPhgjJ2xBI7wQXsTGi5KguXr1Ks6dO4dd7x3AD547oH5jplc7UiQHTWOAxAzhbmJiAoTDWN7QCCcE+01jn7MfIyeMoBFeCC843DZ9v44XuaC5e/cuvv32W3z++ec4duwY9uzZg61bt2Lz5s3YtGkTNm7cKEVyMHQMEL4IZ7t378bRo0fR7XZx/fp1EB5H/SOcEM6PYt+LmRPESeGF8CJWXuSC5t69e7h16xa+/vpr9VsyHS779u3DW2+9pcQNHThSJAfDxACJZsLX3r17ceTIEZw9exZfffWVwiHhcdQ/wgnB+zDx3o+t2DlBnBReCC/6wfIwx/TLi1zQGOV948YNdahcvHhRfZ/h5MmTOHHihBTJQSMYIHzRlwsvXLigcEdvCWN4O2PEFMUinBD+h9wDY+eEnBXCh5B8ML764UVJ0JDypg385s2buHbtmnpbQ78xX758GV9++aUUycFQMUC4okJvBQlvhDv67kwMb2eMoBFOCO9D7n3TgRPEDeGF8CJGXpQEjdnESdTQwXL79m31+p8+iqLDRorkYJgYIFxRIZwR3gh3MYkZwwe6CicE+8PEPmdrOnFCeCGc4HA87Pv98sIraMxGToeLFMlBCAwYzMV+DZEL8SGcIwxMpx/BrGA2FAbqeFEraOomSp9kQDIgGZAMSAYkA5KBWDIggiaWJyFxSAYkA5IByYBkQDIw6Qz8P+rC100SjbxRAAAAAElFTkSuQmCC;" vertex="1" parent="1">
          <mxGeometry x="10" y="20" width="600" height="58.51" as="geometry" />
        </mxCell>
        <mxCell id="EX8O4b1PGBb1F0dFALzU-16" value="" style="shape=image;verticalLabelPosition=bottom;labelBackgroundColor=#ffffff;verticalAlign=top;aspect=fixed;imageAspect=0;image=data:image/png,iVBORw0KGgoAAAANSUhEUgAAAIIAAADdCAYAAAB326rfAAAgAElEQVR4Aey9Z3QcR5bvOR/3w75z9sN7+2Zndnpm33lvdmeme6Z7RtNerVa3WpYURe9E70nRil4kRW9AAgRBeO+9KRSqYAveFbytAsqi4L1HVcH/9mQWAJIy3SIIiqRYhZPIzMiIGzfu/WfEjYgbkX81MTGBcIyPj4uH1WpFOCwWy8JhNpuxH6+uDB7X5bx+5/U9r/+/ehwEQoLR0VFGRkYYHh4Wj6GhIR4/BgeHsB8vvwwe15lwPa9PQbeCjs1my8LLL2BgAQgCUoaHR8RaYB41tppBqB0ePx7VFI8jzX79ssnlcZ3Zavmv6lW4F2oGEQjChU3hFhEIs7Oz2H8/fAlMTU2Jzf08GP7qcSAMDQ0zMzPzw5eCvYRiLTA2NiZWAgIGRCAI1bpgDAptiR0IrwdKhOZAAIKg+68BQTACvwqEWWaZmZ3B/veKSmB2BkGHX/0JQBCMxq8BQUDHNwFhdHoUrVmDwaK3H6+gDATd9U/2fRUHYi3wBBDmDcVvA8LI9AiqsXoazQ1ozA3iWbj+puMvPf+mNPawb5blUslF0F3PZPefBYKAgb96EgiDX2saBCCox1RirSAwpxpT0TDW8I2H8ExAoMbcaD9eEhkIuuud7FkaIDSa1dSO1hPSmUzBUBkVIzWUj1Q/cVSO1BDfk4WsNw+jRbcABK1Fg35ch9ayxOCwaNBZNQj0nw/wNGitX6fdaG7EMGlAP65FM2Yrk8DH8+Hh2WW2pEAQqvyS4UokPdk0Ww3iWy+8+fOHzqIRw6tGaojryRKB0DjWgHHaRPO0jqqeKppooWlShyDIZxeahsaReuqHVDRaGmmYU8iz0/3LvBkmdJQYcylqq0QngGFJyvOX811sPksOhNLhKpJ6c2l67G0XmNOZNQhAiOnOoHCoXIwj1AiGKRM1xlQO7l/LsnXL2X7mLMpeDa200CH+b6Flxoh2XDd/h2lKj37KSDutGCb0mGZNtAh/Mwa0ViGekLqZdtooqo/H0e8G7pnxNI43zdFopo1mdJZGBCDqJg202SjQNKmnabaZVoSjRaxNWmgT47cJ+Vk1InCFZ+10U6OXcOLCJdR00jKtp9GsEWM39uZyw/UKOZ2N9NBDy2AhR6+ep8Rsol2k3WoD/JhgUz0/BX9X2s8NCCbRctaKb7YAAoNFh19HEjHdCqpH65D25mC0GmibauCz3cs56x9Ey5iR25e3s/+2I3Gpjmw9uIX1OzbhW5xFy1gdt51Osv30UVKbKpGlurNp/3ZCcuNwdT3L+l2fEliYSet4Hddv7uPjreuJKM0gJsmZlRuXcdLtIa2z7YRF3GLFhmV84eeLdsqEYcKApruAM6e2snLnDmSacjKyvFmzYTknHJ3Rmuu4fmcvn+7/lG0nP6dirJnSuni27/iEnZcuk1wUwr4jZ4jND8AhLox2SyWnPByILwznrq8vjQPFHD76Kdt2r+atHbvJ1udy9sx2th4/QoapCtPEo+bxuyrtecR7LkCQ9+WJxmLBYJnYFBgsWnzbpSIIWq1GhKYhsTeHpkkTxh4Fv1+zhtyxNvoYoLbBn21HtnLu8no+vXKDrGI/1mzbw3XHo/zbm7/mw49+zXuHjnPP4SjL9n6OeqCeaJkP585vZdmO43h6X2TrqfNkVMpIqc0kvSKWu+4X+d3H7+KT6MG6XZ+SVV/A7u3LcE5LZZROLn+5nX0OTigqUkjM9GfFlvVIaws4c3wjV/2d2LDxF7goUjh5fCVXQ7w4fHgd9yQxyEpkyPMDOHr2Cu5BZ9l+5x7D01X8fu92fJPcOX7hElcv7+PIfVfSM535zdZPKWgrJzDSmS3r32HnFRc6aPsB1wh9uWLhPNolpPcXENgpI7ZbIYJCb9YgGIwCEIQaoX1aw4kDKzju5oWuV82Vs5s5+sAdx/ufcsTDm3pTIus37+DUl7t5c+V67vnewSc9gbtOJ7golWMyJfHun95k+Zo/8PtPDuB0/zSHrt+jcaCOYl06+7d8xPsbPuaff/srHoQ7sX7/LtQDBo7sW8btRClmujhzdjMnfINQdVWRUeDP+5s3ouwzcuPCFk45X+HIyW1UzY7i7XGIo/evc+DwevyV+ZS3FKMo9mfv0XMEx99k1ednqFBH8bO1nxCY4s2Jixf54uxOLgRHUlUTyFs7t+EReos/fPAOv3/zp2w4cZcOOtD+kJuGFqsR1Zgat7Z4EnqyRBAIVZrQTAhASOjNFo1F/WQT9a1ZHD+6iWXrl7P38mV0E93cv7ORN5d/wKpNK3FMlaLvK+Xs2d2s37UDSW0R4bH3cMpIwdSdz779G9n1+S4OX7pF3XAVnx/7hDeXfUhgjgSne0fZfng3Wz4/gKK1Bh/v87y/8k98dteRemsTTZNN1DalcWDvaj7ctJG42iLi4+7y0SfvsvvCFap6lFxx+JwycwdhkZdxSIqluDyCNeveZ8OJz5GXxnL53j3qByrEmmLttlWsO3MSqTKKG65uVDSnsW37CtZtXcmmK5eQFoTy6e5N7Dq8gyvegTTPtPwwgSD0GoSmodVqEO0C0SC02Kxmm62gFbuYEqFGsOhEY80wJRhxRtQjKtGM6qaVe/cO4J6eIhppLbNN6CcMNM8YRMvfMKlHZ9WKxp5u3EDTlB6NRYtxUkczHRSUBLD/1gX0dNMyaxS7b8YpI1qrlhZMYp7NNKO3ahbyN03pbDSmDDRjQjvWQNOsCeOEFt24rR3XWXWi8SgYpwZrI7oJA8YJW5jAh2la4ENH87RR7K4K3UXjlEk0CrXjekxTBgQ+9OMadBN6DBM2G+p5tPlPS3PJbQThbffvkIndSGEMoW60XqwFhEEmYVxBeC4YirE9Cpqs+kfto9jf14rjCEKfv76/mvphtajw+UIJ4Qt9cYswNmCztoXw+cMwriOrPIaw/EQ0Vr0t/IlxBIGGLZ95usL5CdrC/WNxhGdi3MfzFJ/bwuefz/Pw+P087fln4v0cP/PxRNovuHlYUiAIxIS3PmewBFlfLun9heJgkt6iFUcYswaUpPUXktSXS81onRh3XlDiG2591N8W3sIFpT+NkCxasVbppNXWPZxPa9Ei1CR/SejzA0FC7TIPtL+U5uvPNWJe39T26ycFcD5jd1Esi1BLLV3Xc8mBIAhFqPKFQwCAAIx5QQn3Qg9CGGN4PFwzqqKys5yKzkqx6jdOGcRqU3grjdMGERACMIxT+sfaUw0GMZ6t2haujZN6VP2VlLWWUmQooGpALSqkadpI42AVebpC9NNNYjzhbRTyEUb+hNpKqKoF+npLA0W6HHKMxaiGG8TBICHeI1Bq0ItxbWHzwBEGkATFCHSaJjQoTcWoxmx5CE2AIAOdpYHS5iJqhxpEvgSw2V4AQUYaMS8BKEI5hPj6CR02ujbgCCOVwrOGoWqUTSU0WnXi6OVCUzn3IgkDWAK/83wKwHtclvP6ePz8XIDweAZ/6do0pSVS6o17bBAxWRKqB1UoDbkUNpejGakjuz6Tit5aKtuKydEWopmrsoWCFutyyGsqFYVVqMmitFdNpU5OYFwYSUoZJf2NqLpLyNIUUtNRjKRASnxOJDElmTSM1JPXkE15Tx1NU0ZqOpRkNRbQOKIiWuKJc3QwKqsJ7UgNmXWZ1I002kAzqqaqs5RsVRbVgw00TxtQ6nPIN5VhmjFR11NObrWMB2E+1Fj0lBrzUHZUiwNfTRNqAiIfkt+pRtWlJL+pFNVQHXVDKhGANT2VKI35YrigzOrOMgqbS2gQR2fVIkCV7bXUt2fhGRKAbraFYm02+QYltQN11PbViOM2tb011A/VU9GmJFudi8qsRzNSS1Z9JuU9tY+B+lHN9MKB0DKtxT/8AR6JEeQZSsgoiOC6qxNptVkERrlwL8SXvKYSkgsiuel0nShlFm2z7WSXRHHjwV1k1dmkFMbgHuGFe4QfCXkxRCdHEZmWSIY6E+9wd7wTQpGXyojMisUz1JGH0gQqW/LwDHTCMcgXpb4Ar1B3fBKCyWzMI0ERyj1PZ7J0xUQk+uIV5YVHXCjqiWYaOnO5dudLfOMD8IoPJb1MikeEJ25hXkiLU/CP9sIvyp1rnm6klEm55+XIbQ8nFKYq2mc0hCX6klyRilvAfRx9HuAe7k54QTrVpmwCk8KJzwjlurMDCnUujg+v452ZjG6iicaBCsLiPLju8YCUKjkR0khb3lG+OD+8jUd8OGEpwdSPaQhPjCCxOIGr92/iE+VJSIaEkFg3nIJ9yTbaXpyvvqAvHAjNUxoCot2IKEilqreWEl0mAYlBxORKkBbGEygLJyE3nsDEQLxD7uMUGU7LbAdl+kxCpEHE5MXx0M+FynGhtxCJs88D4jJiCZHF4i/1IzQ/nUH6qDZm4JsUiaREQl53AznKSPwlAdz1dMQvzp8IZTbD9FHakIJvnD8uvvfwjvHHWxJJH514hT4Uh4vVbQruB/nSQy/hUleuOd8hv1tPvSGFy9cvEZCnoB8NvtFePPBz4n5kCOHJoSgM5bTPNBIpC8A/2oMbXq7EZUYhK0smLMkfz7ggJIWJBCcE8dDnDkFJkfhEB1NpNmKaMaJUJeMdH8h9L0f8kkOJlYXiHe1L0XAzFdWJeMUE4Sfxp3HCQFCkP9E5sfgmJ2CaqCZU4k+SMkmUoaQyR2wyXkIgaAmOccMjQajO5WTWphMY54FzoAeS4kQ8glzwCPPBI8obz9AHuEqiaZlto8KQQ1CMJ04hPiTkxeIR7o5rZABJxQnEpccQKo8jozEbn3A3PGKCSC5JIjRTgqJCgkdcOJFyP7yifbjnc58MVQ7+EW74JISRkB2FR7gnLn6ORBWlE58ShFuoG16SCBomW2joyOHqrUt4RvuKYdm1ybiHuvEw1IuUCgUBUZ54hbtyy98XRZUMjzAvIjIl1AxraJ5qIELmT3q1At9ITwLlUVQMasnI9eOKty+VzTm4Brnj6n+P8LQ4QqTRVIxqEWycwppEHoR44uz3gJCMSGLTYsmqScE3Pghn11t4yiQkZgfjHuHBNcf7JJXJCcmWoRupIDYjnJSSZFz9nPCUx2OYNi7YbfOAeOE1gmC01fVWkNuYQ66ugJreagp0edQMqqnvLRcNPM24Xmx7C01K6odVaIVeyHAtBdo8Kvvqxf57SVO+2N7rrY3UD9SJh9B3V/VVkG8oRj2qFttNrVlNiUmJaliFsqmQiu5qjLPN5BRFcD8iEP1MM5VtSpStZWLbrDPXk6/NRz2mFccAapoVeEX7UWAqpX5Eg2naQEVLEcr2KtFGEIzVAkMRtYMq0SAUnhW1lKMRup5mgbdaBL7qe8rJ0xeJeQjGct2ASjQEK9uVKFvKUA+rqB8UHH1s7bgw9iCMZJa0V6AarqdhtIEKUy4+4e7ccbtLYr2S5slGivQFVPbW2dIP1YsGrGqonpquMvL0hTZ74xt6LS8cCAIibT0Cgyg4wYoWrGDBYhZ6DIa5bpwQR7CgbdZ7gyhY47RRHERqHBMsbL1t7l8QuPXReMN8OgFwYlrB72FCJ8YRZi6FXoNgmJWbCkQbRYg/b62L3TzLXFdQGEuwaGgYqqW8owLDlHHB6FrIe278wWbF23pLwrP5XoNY1gXLXrD4bT2eBd4e6yk8XgZxhlSYZZ0RBqO0Iu8Cj+qBKjIqk8lsLBRlKNARZSfEmS+vyJNt7ER49m1d1xcOBAHxxpkmcTTPNNM0N6XcTG1bIUnl6RjF6WETzbPCyKDQHbN1rQQQaMfUNI7ZFNsk0JhtEpUj0hOuxWnmRozT8/RtI36PxxVGCcWpZ5rppA2D0J0caxC7W8IIo/DGC10vIZ5wrRvXI0xHCyOOQjz9pG0kcj5vgbYQT+gGCqOYQhdRAJCQXiiDAHQx/5m5a4HujEEEspCfEF8AjzCNLgBIyLuNdir1OchrCxBGRAW6Ap8CXYGWOLI6P16yyPMLB4Le2oCiTEJwUggJxXJiM8KIK8+muq0QSWk6RYZswuTBhGcnUT9Yi6I2l0ar0NfPJizOk1ueHtSOqEkpiCIwNZbaYTWKUgkh6TFU9KvFPn1WhZSQpCBiClPRmhtIU8YTnScXmwpZQQySSgWFjZmEp0VR1C509QyoByqJywgnVpkmdjWT8mKQVmWjEsJTI0itL6RpookSbQbhKSGEpMVSN6wmtSSO+LIMlIYcAuL9SdeU0jTeSGJWOMHpCdQO1ZNWHE+8Mg31cD3y/Bii8mQoTYVEpoSSpi6gzJhDeGoEBW016IariFVE4Ox2j8DsdMpN2YSlRVPcWWOrARep+HnbYP78YoEgvCkT9Ti5XCWqUIaD42VCc6X4hPuSkJdAWHYiYTEPcUuKIULiTVxWAu4RYWinGwmR+BAuCyU8PQlFaRzeSTHI86JwDXXHwfUOYbky0UBrnVLj/OAK4YXphMZ5EqdMJSE1iMu3rxKTI+G2yw1SDeVkFMfi4HINh/BQWugkqzicK04OZGiKiE/144abI7cfOhKeGsoNh7sUd6tFZ5aIKCecYyOR5YQSlByOo/ttopVyvCM9Sa3NwCfah1BpIIHJMeQ15BGTHMD1h/e463kXjxhv7jy8i7w6m9BYN275elLQXEZWhYR7rje4HxlEVHIwkUVpBIU8IDg7lazyeG47XcE5IhwTrY8NsD0aE5hX7tOcXzgQDOZqfCI8qDfrCI73oWRYg0QWTKg8nOCMOKJSgshoU1NSG0+sIgq3UH+UbQXc93tAYp6EhMIMUvMjCMpTUN6YjEt4IBnlMu773keqKqFzphE3n7sommtJzg3FJfghXhH+eAQ64BUdiJ8sEo25ngf+zgTE+3DF3Q3tVAt1nUri0oJ5GOmHa+B9HkYFIy9JJV0ZS0B8lNhkCc1BVLwbIQVZlDbI8IjywkcSRnlnCe5hntQOqwiK88A1yJVYZSbGsQaiJe7cCfRFppSR3ZhPcn4s9wNdiC1OJkLmh1e4Jw+CPQhK9OeO9wO8o3xJN1UjlwfgnRiGT5g7AbEe3PZ8SHlvPeoRYZ7k2UAgAOaFA0FvrkOaH0ftcAOyIgnlgyoyy+SkVqSRXJ1JeqWc/M46ynXp5BqKySiOwTXEFS9B4O3F+Mb4kaMrICrJj4eR/uQbhTc4WOyXF7TX0jbViKf3De75u+KXFEVFeynh0gBxkCipJIXE0lQarRoSM8PxjvYmIE2CfqqZqqYcAmK8CcqQUN5aLII0ODORkqY8kopS0Yq2QRPxUleuuzriGeVPUUspiUVS6i16cioSeODnQowyk8bBSgKj3fGID6O0tYTIJH8CkmNQNheJvAQkR5KklOIb4018UTKyglixJgnMkFLRmo9XuDsuQZ6k1eUjyxPGF7yJVEQTlyOhvL9BnEV9mrf/m+K+WCDMtW+iNStazDarVrCIxWPOgheMPsEXUbDuDcJ8wISOJtFws/UkhGfCGLxgZAlnId68JS8ALTotlPIBjTiNLfQUhN6HOE8xOT+Wr1lI3yRMJc8Zi2J+k3rREhfpCxNhczwJcYS4yXkRKPTltNJkozvneibQF/gUjFshjY0/oacwz6OtjPO9JJFvocc0N2ci8C8YgcJZ4FcwjoVehtgrmJvrEOgvRW3w4muEJTJ0vgnhT4TNTyN/X/m9gvm8FDXCE0p7DkIU+tTPLY/nSfs5yOLb5PBaAOHbCm8Pf2RkLhkQhqeHqR+to2FMbT9eQRkIuluStY9j02MYLQZMVpP9eAVlIOhuYHLg2dc+fo2CPeAHIQFhc4z5ZfHfaTX0D6LU9kJ8TQJ2IHxNJK9ngB0Ir6fev1ZqOxC+JpLXM8AOhNdT718rtR0IXxPJ6xnwvQBhZnqKafu+nS81wp4aCP3tRuq1LXOFmkFVV4/1zxVxapzCzGRyyhtZUizMTtLS2s7EUhAd7SZRpmD8z5XjB/7sqYFg7jXw0M2PUWCkpZbAcAkNqioiwsJJTC/EPD5OTXEWoWGRFFZp6e9tJzlRQkJiCp0DY6I4rQOtRAQFoqzT09fRTJo8ibSsInq6u8lXpJAoTaWjbwRtdRHRsYlER4ZTre1goKMJuTSR7JI6eox1nPn8NIpqA72tGqIjI4lNTGVw1EpVSQE9lllG2k2U1hrFPJvVlZSpBQDPUlJUSmNjAymyRBRF1ViHOggIiccyPkZeqpTQsCiqdO10N9UTGBiKrq2HlsZapIlSCsvVdHd1kCJNJCU9l0HLtEh/bLiHrPRUkpIz6B4cpaognYjoOOITpGQqsoiOiKCsoRldXQXl6taXDlZPDQShBAWyKLIqtOQnSygoKSE0KIpRs4USRSJeHj6EJSjEbd+HhgcI83qIb0QSYX5eJGRViQIYMJZy09EX8/gEPs6OhMbLCPDxRZ6mIMQ/kMyCcvS1JXgFRmO2jpMT70NMRjlNqnLi4+K5cduJBp2RiPA4RqxjBPv4YRoyYyxVEC1VkBAbQasFBrXVxCSXinmOdmoJjpRj1NYRJ8uhsbqEhPg4bt10Rq3RIpUrKMxKJyatFLN5lMiQSOJjwvCJymZisJnbNxxITJLj6RNEWloafv6hFJbWMGSZEuknhXjx0DeK2GB/EhWFRPl7klPXTkN+Ik7eMQwNtOPtG0j3iJkx64SY5mX6tyggTA534nDhFK6h6VjGBgj2DaZRoyUlIZrY2ATCohPRaHTom0wkhAUQEp9OUVEpLT0jYtl7dMWExqQDM4T5uBGbko+ypIqunj7qyosJCfDBNyiCqBgJBlML0lA3krKKiAvxJymzEMc7d6nSGIgICkbd1EpMSBAlai1FKfGk5JahkEaRUdpAekQggfGFC/Iukodz6qIDnf39RHm7kpqVz/3rjpRV1RIdJ6eqtICwuDQ0mgbCw+NJkcWSWWJkZrQLF2cXsgtLKatW09vThTIvkwf3nciutjWTWfFh+IZJKS4uoa2rl9jIUIxD0KUuICqlAJgkJDgQlcFEa9fQAk8vy8WigCAwX1dWgKq5XyxHf4eR5KQkCisbxfs2XS1SqZwabSsT42YKsjNIzylmyDIpPrcMddGgaRKvx0e6xSo1R1nN2NgIZQU5ZOYW0TdqpqE8l4ioOO473CGzsom+Nj0KRQ45hSUMWadoaagkR1nH2HAvmanJYk0yNQsTIz0o0lJRKPLRNj/abtbc10JOYYWYb6dBLVbZeQUV9PX306gxiMBUVxSTmJRCS98YQ13NGFtt6XtbtSTLU6hsaGJ0sJtchYKCkmpGx21lmpmyUpqfTWpmHgNjVpp0GgatMNbXjqapDZhCr9fSoFahMX19w0uRqRf4b9FAeP48z9JYXUqyLJnUbCUjVltb/PzzfT1zeImB8Hoq5EWV2g6EFyX5lyxfOxBeMoW8KHbsQHhRkn/J8rUD4SVTyItixw6EFyX5lyxfOxBeMoW8KHaeHggzY0QFPcDdy4f83DIKlWpgmqKKQvLyCylWdzEx3ESpWoVSEYXTfSfCJGkIwy79+hpc7jsSlVqA2WomUxqGV1AUfWO2YdoXJQR7vjzxTafv5Lw6O2rk0MldJKRloSrK5uqNMHH41MnfEad7N/nPD/ZSWJiIf0IYrp5XkFeoifNzwd0vjIeOwnBuNZH+ntx2uMWxk8dJLijHuhQziHZtPpMEnrpGmB1r4eiJ7QTHytDVlnDrVjAwgYuHA35B8dy85cyOzR/hHBOHX8RDmoGOsnROHj/DDVc/kdn6jBhuu8ZQkpfBtS++ILvCNkP4TCWxJ34mCTw9EIaM3A/1tWU6ayHa/z5fXLhItCyfzCQZObVdyHxvcjdMTmTAFS7eus31Ww40tHSTHxvMtevXuOnsTpVaQ1ygF5cvXCWvyjbv8EwlsSd+Jgk8NRCYnWFicuKxT0hO0d7eKTIxOzXJ5NyUgPDh0AnzMC3NJkYf8x7pbGtlzDZPQ39XBz2D5mcqgD3x0kjg6YGwNPnaqbxkErAD4SVTyItiZ1FAGOrppKa6kuLiYur1j9yuutpNVFWUUlxc+rUu4VBPB92DNlc1obDm4W7qa6pEGjVzvglC+NTEGDp1PSXKYpRKJWrtHP3pMSqUSlQ60xO+j90tWoqVZYw87nA4MUSZshhd89fn/acnzGhVj+hrDD2MjfbR0WPzrRB4EPwZlMpiWnuGn9DL1PgYmvq6Bd50Tb2MjfTS2Sc4mkzR3tX7RHzB8aa7q53Jb+gVNdRWUF7bsBB/XGhGW7sWyjYy0EVH/xDMTtGkUVGqLKasSr3wfD5hY20ZFTWa+dtFnxcFBKd9q/jnn/2KDRs28M4ffsfxmyEiA1s++h3/8dv3WL92Fb/9/XvIlNo5xsZZ959/x0+WHV+wLaIe7OTv/umnrF+/nmXLPmDlts/pMsNgQwL/4//5v1mxZj1r16zh6oNYBlob2LV6GavXrmP5shWEpdWIvofu14/x9vsfsW71J7z38VbqOq20lCXy4du/Y+XqdSx/7498ftNXHMOYl1BrWRT/8Pd/J9Jfs3o1jt5ZSAJPsPLEbTFKgcSHt9/6g5jXe396D/9E5XxSjIXB/Ojv/p6Va9cjpHUJyCPG+zPWX3QHhvjXf/knQrLmyww1SQ/4pzd+S9ecTSQQsvSbOLRpGR+uWMnKFR/x8eZDtA9P0qyM5Rd/2Mm8xRR2by9rrvnAsIqf/K//zoer1vPJsg/56NMjtJthasjIwY3LWL5iBSs/Xs6KTw9j6lu8C9yigHB507tc95aJAqpOesi//PpT8Xrtux8QmW8zHJNcj/PGB8fEcFW6L8s+XskHH3xIUlWHGOZ1bR2brvqI10yMcnL9O2y9FEZfQzy//GQNjw8xpXqe52//v+UL3tLj41MURNzhx7/+EGOvrSpoqC6n1VDL+2/8BNf4EpHueJ+eD//zJ9yNEVzFbD9dljdvrNsyfyueo5x38ckZZ6w99fz83/6V2GKdGN7dpKa2UegA236qFBd+sXHH/K14DnLYwurzbkIdxz/9n/8bf/erTaJjL7NDrHrjr/k//uVN+hZ8ama4uvtDln92cw6cU9w58gmrjzpjrJu8cJsAACAASURBVEjh529tWwBC6J1dfHLZCzqL+Y8P32d+IfveP7zBvYgsnI+tY83B23N0Jrm9/xOW7bn8tRrjCWb/zM2igCDUCP/zn3/GsmXL+Ok//j07L3mLWax7730cAjNpa2vm5pE1rDh4Xwz/fPOHRJX1US+5x6oD18Uwv5sb2XjJY4G1zsIgfr1yJ4ZGBf/z7/+adz74iA8++ABpYT3mgVZO7lzPe+/9iYMnL9HUO8SVXSs54SRdSC9cmAp9+Ne31z8RFu24nz9tu7kQJtQIP/rbv+G9j5bx0UfLya7tJSXgCJuveFIh9eSt5YcX4n71QqgR/vZv/pYPxLQryFcNkOCxn3UXhBqhhxXvb2HVx8txis4jO/QOazeuZ+P2DbRY5ihNdfPWv/+cXP2jBQBjmkx+89vlZGck8Nt3di241Efd38fqK17QU84bf3iTfF0rTdpaPv7NrwiMl7Ds3TfJNj56XUZ0cn78s3fpfhT0Vfb/7P2igHB964ecvRfC0NAQPYYifvXrN6hpH2Tfqrf5t1/+kXff+ik/+td36LaCuamAv/4v/4WV2/axfc27/O//7Z9ot0K44xa23wpaYC74y118sNeBzgYpv/zoY1qGhkT6CxGEtnusD5dTG3h780XiPS7xu9WHFpqa2akJ+vUFvPHjn5JvmG/bZzn08a85cj9+gYwxL4CfvvsR5Y06GhoaGLFMEe++n7UXXOnTZPOvP/0V2qH5V3iWMcsjpTUqPPnp+x9TPZd21DpN+P2drBWB0Mm77+ylpq6WFT//R/713W00NJSwef0ymufr+9lx9n70S056yBf4SfE8xZurT9DakM9//Ox3zH/H3fHgCo45xsOoih//j//Knz78iJ/86L/x8bGHYtrdH/6C8+4pC3TkDz/nF8v2MD67EPRUF4sCwtUNf+CX76zizp07nDu+h3/743JaBkdZ+dZbeKcamBprZsOHfyAht5q7R1ez+uB10lOSSUlTcGz1Wxy6FU2s+y5+9MbbXL16lSMHdvAfv3qPYuMog/UR/PU//Ijz125x/do1fKNllGUmsGHzDm7ccWDXuvc5eD2ASesQe9b+keWb93H54llWrNpEdfsomYFX+Pkv3+bcpcvs3/wx76/7jM6xecWCJsOV//eDlU/YDaF3N/H2vsui4DyuHODnby3j4uUrfLrmY9xichcEWpfkyD8vW7twL1z4Xl/D+yechPFT/v0nyzFaIDfSDX9pBQxW8sd3fkPTIxsZU3UGv//VG+w/foazJw7wi9+8jaJGMIgnObvzY97bsIdznx/m33/1J8pMo0wa0/jH3/6KjlnQ5kTwh/dXo+sy01yVyh9+8QYHj5/mzPGD/OLX76CoemS4P8Hkd7hZFBA0pXl4urvi5OSEi2cQxl4b5HMyFOg7bC7rbQ1lpOUUoFCk0CGshpn7mbt0pGcpaTZU4uPpLtLwDo2ha9RWp1mHW4kI9OG+k5P4LCguhXGrhZJsmXgfl/qovReElyoJx8npAYXVWubVbawtwMXJiYiEjCdsDYGFkS4d8pz8J8JNjcVkldXNs0htUYaYlyS9AOvEPFUYam8kObdgIR8hgUFVSG6VYLVbSU/NY8Dy6JWcGusmOzuTr86pTQy0EOTjiqtPEC39jxl4s+PIo/xxcvFG32WT48RQO/JMBWNzZAtTJdQabL0ha38LId4PcPUKpXXw8W7TQlG+88WigPCdqdsjvjISsAPhlVHV82XUDoTnK99XhrodCK+Mqp4vo3YgPF/5vjLU7UB4ZVT1fBm1A+H5yveVoW4HwiujqufL6FMDwTw0QO/goxGivp6eJwZnhrubqFTZfRCfr9qWnvpTA2GkU09EjEwcop0YbCVBIsNgMlJSUkpL1xB9pkoSFOVMT1ooLy4gv7gCy9QsPa0GiksqaGxQoTG0L31J7BSfSQJPDQQht7wUCbXN/dQVKShvaEFXV06SNJ6gyCQM+nqyCyspzsmgsNaArkqJIr+U3OR4olOK6O3ppL3zkRPIM3FvT7xkElgUEMy9JgK9PIiQZmOxjhIdFk5FZRl+QRFU1VSiyFWSlSqnvn2YIZMKWVoW2VkK1KYBZiatjIzOz8suWTnshJ5RAosCgpCnMiuZco3ghDJNVUkhuXm5ZOaXir4IdbpWzEN9ZKWnkZyWRe+IGWNDPR39VoY69JTV6J+RbXvypZbAooGw1IzY6b1YCSwKCJbRIdpaTHQNPOo9GEoLCIjOZ2rOUXNq3ExbRydjVpvD3uToAN2PxZ+dGKOje94B65EQejvbeXy7pN6udua2MnwUyX615BJYBBCmOXdwDSs27WDz+s1EplXSVJPFsjd/w7/89G0is2pFJvuaqvj4rd9x2SmTnuZKdny6nvWbN5NWbWSiz8CJ3RtZvWYTgdJ559BZ0oMdWbPqE/YcuUrvmJWcKGfWrF7Fvs++pKX/2ebbl1xyPzCCiwDCGMcOb6NW8JvoKWX7gUM43zjCW+9sJjDRtqHmvIyKfF25diEUt6sH8c/QMqbPYv+eSzjf+5LLAQomRw1s2LRF9Omb6a1n1cZt9FmniH14gbNXrrF3x2HxPtLpNJ+7x82TtZ+fgwQWAYRxju9bzQ2vaALufcHxL10Y6Gnn0uEd/ObtFUTICxb8CIv8PbhxwYtrew9RKuxLOd3CyWWfsevEQcJLhb0HZ9m+cx0qwZWrOZeVn50Wi1id4cuKtSvYfNpRvC9MdGflJcFT2P57XhJYBBAm2Lvxj+w8eob3f/crIvJ0dDdrSIlPZMvKVazce2zBHzDH7R4Xz4QT5XOe8y5R5MW7cuyiK9JwN/ZfcEaZm8DuQ6fILsyjoqyI/Tu3kVao5Papg3iFRnFq105Shfvje3COy39eMrDTZRH7Iwi+ef5+D+mahSFdIT7h8WjKc1j3wR/56Vtryal5tLJZnS4jNLiQKWs/N88dYc+xsxj7zTA7hvftM2zdfRR12wAR90/jkVhKV2M+e7dt5oZrtFirNNdksHf7Fm66RDL+DauF7BpcOgksokb45szNvd3UG77eC/jm2E+GNtfX0S0AxP57YRJYMiC8sBLYM14SCdiBsCRifPWJ2IHw6utwSUpgB8KSiPHVJ2IHwquvwyUpgR0ISyLGV5+IHQivvg6XpAR2ICyJGF99IosGgjA9bDCaMD+2dd5ixGEZ7EZn92FcjOiWNM0igDBNZWEWkpQsiosKiUuQ0dY3Sk9npzgMPD48QN/QKGNDvdRW12AS/RNnaDboqK2uok5rEgswMdpPZUUFimQpyTk1MG2lpqKM6gYjs8xg0OkZe0aQLamkfuDEnhoIlj49EXGPduroVBWTmJZDmjyV3knobawgr7qRrmYN8qQk/IMjaevqJsjDgwqVmqTYOOq0BjLlSVSrGkiTxpCaWy5ux1tYWY8yK50cZRU6jYYx+wTD9wa/pwbCxEgHkRExtA/Y5gaq8tLIKa0hI0lK68gkmqJMskuqyU1LoqiympCgIKpUGuTSVLFQDYXZZBUWkJggE9dDaCrykKVkkZwkpXcKhvSVxMizmZ6eZvbRnhPfm0Be14yeGgiCoDqNKiSJSQQF+BEal0r34Aht2mqS5KlI4xKoNbTRWK1EkZNLoiyVppZ2SorLRBkbasrRiJ/YrUKemkZ8bCwlqhb62vXIZXKSUjPp7OujpKiIAbN9yvH7AuaigGBjbhq9uoacnAJUBsHJBGZnHm0zI9zPTD95b0v36P/Xns/aFf9IOt/v1TMA4c8wOjPF4ODIU+35ZzY/udbBOv5on7jxgVay8vKf+KayxfLktHWVskB0l7dYnqQjFHDhNzuN9YltUGcXNhFfiPOaXiwCCBbu3DxPeatt27mHV86j1M1vZ2eT4my/nosXHel5bMfRb5Xv1CjBTpdZu24VZ+/60N3dxq3P97Ny1UYCEorFZKXyIA59dpjVy94hKLWYtHBPNq5dzdFzd+m1zMB0LxeOHeTipatsXreacze9GZ+cIMr9S1atXI1LYDqdTWrOfraT1Rs3El/QgLnPxPF9W1m/ZQd59rWaT/8FF2GH0cP7NyCv6cJiGeHzrRspMoxQkh7C1i2f8jAyhUlzJzevuzAyPUFmjDdHTpwmTdm44Mv4BCimLDSqG5icHOTgrpV8ceoMJ64EMTlm4uN3P6BtxIr7jQvUdFqIcz/NJc8ojDo945MWDq9YTlLNAF1Vci7edKVR08TURD/7Vm3C18+f3XvP0tvbzdE9WwhMKaSptRttbgDbjpzE4+Zp7obn0l4jY+Pmk4y85q3SImqEKY5ue593Vmxkx44t/OKXy0lJkXFw32fUqFScO7SPoIgYjn9+lezUGN78j1+y+dPV/Pyt5bSItfkk0Z5OOHlGL+wyKgCjPjWY/cdvUVuZz/6d23G4fYVfvvl7MgsLuH7NQQSRxOcil31tu60aSpLYsPMEg1MQ7vwl0fm21VOVaUEcPO9EXIg7+x2jRcxdv3KEa0nC/s1w99h+AqVp3Nq+nwKdsLVdF7t/twvDky2KGPd1+rcIIJj5bO86ZFUdjI4OcXrPbkJDgzh44BSDIyPcPH4QD/9wzl90IDUuiN//fhk+fv74hURiFm3HaQpSJEhSCuaW089SkRrIe+98glLTJcreUFNMlJ8juw+fJTLIhwdByWJ4xMPTXA1KoaUig3f+uJyMmlamLZ2cPXWe3gmolIfw9ntrqWjpo6MsiY2fHqO1tZlDOz4lva4Jry92sfukE+aJaXy+3Mt1/zQMJXFs2naGUXuNwOjoKIKN9Z0+7iU4rzrdvUyVsI8u4HnrKvVtw6RE3Gft2jVcdgvFPKBjy5Yj9FhGCHe/zu49+wlPt22ULSZ6/N/MKKc2vccflwkLWU5RXKvC7cuT7Np/iMIaNfevnCO30bZ6WhHvRURqNg9O7+B3f1rB/s+O4Op0k1tuwps/w/GN7/PHj9awd/8hVG19pITcZfWqtfjEFNDbmM9v//NnbN65m9P3AhnoMnH+8C427tiDUrf4HUsfL8qrfL2IGuHbiyt8vkf4bsGdE5s5dNV9YQMNYXDo23/zo0azTExMMjM7y/T0XI9hdpi4mMSFHcvnadhSCPEnKMmWU1QvLJqY/9nCF6jOj0rNnaenppicfNQjmU/1up+XFAiiMGen6GzvWADB6y7gV6X8Sw+EV6Xkdj6fkIAdCE+I4/W9sQPh9dX9EyW3A+EJcby+N3YgvL66f6LkdiA8IY7X98YOhNdX90+UfFFAmLCa6enupqev/5snkp7I4s/ftDY3P9seSbOTtLe1P9W4xXBfF42NWrp7hQ932n+CBBYBhCnSpTGk5JaQm5lBvCyDIes0I/3daLR6Rsen6DPWEhUnFb/8ah0dQqvR0jP02BeuBC+nFiOahhqiouMRPqo23NuJVm9i/LFByNlJC5oGNU1ttm8YdbUaUWkMTM7OoCrKQpKex/DwCK2tbfT19Yr5aHRGRi0T9He3odE3YZm0jTEK+ak1BqyT05gaaomOiqFSa9sBdrCnnXpVI+bJGUYGuul9DT9cvgggWEmTSema8/eoL1CQWVKHQV2FJD6WyKRsmlUVePmH0jtspsOgJikxkaCwWLrHbDM7hroSJMlZlCtzCQiLx2DUEBMVg0QSS7QsB2FOcHbKQmayjNwiJaVVddSUK0lKzaK4MJf0gjKKM+SESDIYHe0jOSWVzoFBtNXFuHkG0d4/Sl1ZAbFRESRll6FXVdnSFpfQ3NmPsaGa1OQk4uS5tLcYkCQmU1ysRJ6aRU2dCn1r32tXTSwKCKlJEjrmpm0rctLJzCsgPS2VyspK/PyjaTNpSc4qEoWZLU+kpKqawAB/1G02r6IceQzlJmE3LivSxCQyM1IJjkyisVFFaWWdWM1Pj3YQHpG40PRkyWPn0liQSORUlhRTUCds/m0mXpLE2OQExVnpGHtGmR5qJU4ip6KkiIjIBFKSE6ltsW0FOD7STVJiEhWVlYSFRJKZpyCz2PYZX2lMJLrux7669hrBYRFAmCY7OQF5ZgGZ6anIMwsZGRkiM1VOdm4e0XEpDI0MkiKVUN1ooiQ3A0VeHpHRcZh6bOgZ6GwiSSojI1VGeFwy/YO9ZKenocjKpdFkm4pGqP7LC0mSJaPIL6O5yUiaXI5MJqesoZWRXhNR8VJMJhPKklJqK4rxCwyjtKKOjlYjyckp5GRlIUnOpaezhRSZjCR5OvrmJrIz0sjJySMmXk7vYB/ZaSnI5Mnkl9WhrqukXj/Hgx0IFsbGxhgcHMQ2o/ikRGampxgdGWF07DFvjtlpxsyWJ1zQ56f4zWYz0/PTgXOkZqbGvxI2zcjo2Nf8HC3mMSbmdvEUvvY6Znnkgzg5bmV8wjaTKMxYWi0W0WYQ85qZZMxsXahRNOX5JClKbbkLvI6ZmVngyZa38HB2Zorp6XnOnyz3D/luETXCdxPH5EgvdfWGPxtZp6pj+Lv4Nf5ZKt/t4VB/LwNfMVi/W8rXI9aigKApSWLH5g18eTcI89zUfqcqhzsP/Be+TVwQ74OLbzQxHtfYsHkXubXNlKf6s/yTjZS3WWCmn0snT3D3wQO2b9rILY9osTbIiXFnw4aN+CYoGRto597F42zYvpu0wkoC75/hkz3nGXisZ/F6qOn5l/KpgTA90szuNevJrazF8fQ+HOMEo3CU07t3ISu3rWsUnFM8HW9y68ZVDpy7S31VEZ9u2U1LTw9HPt1EwpzD6Ze3XFGWltPWqmPnx5sICY9k2+7PqK2v48iurcSkF1FSWoEqP5yVm3fS2dLA6pXb0D7pNP38pfQa5PDUQOirV7Bs30VRNIVJXmy55UXYvbOccfQm5LoTsgITE3313L3nhsOdczjJK8W4Rw5tpNjUh8u5k2Sou4hzv77gcNpel8quo5eICnLmkFOgGN/z9gFuxdjc2eOdvuC0QygwxL6dh/mK9/xroKbnX8SnBsJEbwMbV22hfcRMuNM5zju5c+bTtWzds48f/9e/Yd1Jd7KkgfhLi8iLfcCBG4FYR7vZsmkjLUNWbp04RnxWPrcvXxLHIpqrcli1ZgOlbUP0VCWxcvcZzFYLZ/dvJLGyhZzwe2zdc4EhwZYwN7Ft8z609gHBJUfGUwNB4CAr+qG4i/qBY9dpFzVk48v10AXyy424XD1Nnn6EWXMHV4/tYOWqdXhG27bQdb15i9sOd7jjFmlzOF3/a/7tt+9x8NBB6oytRLlcZOXKlVx1jWeovZ7f/vM/sGz9Vo5fc2VksJ1zJy7QZPuQ+pIL43UmuCggCAIbHuhb2HN5XoBTE5NMDLbg6x/ymHv4NH39j17hqclJshLDyKoUtuqdFV3ihwb76ezoWBhe7uudG9mbnmBoaJi+3m66egdEx9bJicknuqjzedvPzyaBRQPh2bK1p37ZJGAHwsumkRfEjx0IL0jwL1u2diC8bBp5QfzYgfCCBP+yZWsHwsumkRfEjx0IL0jwL1u2diC8bBp5QfwsCgjCplljIyPifP+z8t3b08M376s5Q19vL6Njo3T3/uWPis9MWujq7n3Mn2GWnu4entgy6RuYHe7vprmljaHX/HvViwDCNDkpEmSCh1JaCnJFgTgVbRkdpLW1XVTqUKuG5PRsBkYtTFrNtLW2MTL3Rdh5XQgKaGvRER+fyOA0WEcHaWvvfkyR46KXk66zj5Y2m8eQmKa9i1GzlcnJCcxWm5OK4JAyPjZCc7PNGXWor5u2di2xcTKGrDP093TR3v0ITP3dHbR19ogjlfraEqKi4tG0DYqsjfT30Nxqy29saBDz+PfkMDEvmBd0XgQQrKKC2kXnpFlKM5PJq2ykqaGaxIQ4JBnFmOpKcPHwo6N/lM6mRmSJiUTEJtEvbHwFtGlrSJCmkp+dhl9ILK3tzUgTEpBI4pEqiueGrsfJTE1FrVGRXVRFm1GDJGkuTVgCel09qXm2D44W5uZh0BnJzVPSrG9AIk0jLycZz6A4RsYslORnEhkRQamqGVNjFdLkDLJy8mnvGUBbV0FyUiKKwipam7QkJqWgyBR2f62hvqqSpq5Hw+MvSEffS7aLAsLjXszq4hzSs/PJzcmivLwMv8AY2k060nJtO6QUKVJRVlQQGBBAQ7vNeTVLFk1lq3A9hSxJjiI9haAIKWpVDXnFFaIXM4yTkZJCfUMtmbnFZKfLqBLTTIq7tqrUlUgzy0UhpSWnotUYyMrOJjVFRr2445tF3Cdar9eSmp5LQVoy8clpyGVJtM75M4wNdJGSnEpFSR6hMQnIpMnUNQsPpwgLjXlsvuR70cULzWQRQJgiPTGalLxS8rIUxMsyxZ3L5IkJ5OYXEBouoW+gh8T4OOp1reSkSMksKCAkNBx9lw0IXU1q0YU8W5FMQHgCHV1tpMqTyckreOS8yjg5mZk0aFVkFlTS1WogUZpMdoYc78Bo+ocHSJFIyMxSEBieQEtzKzm5xbQ360iUppClkOEfJadJ30CcJIWs5CSSskpoNjQgl6ehyM5Dp9MijU8kP09BeEIqLSYjMlkyqakpFFaoqa8sw9BpazJeqJa+h8wXAQQYN4/S1dlJV0/fQpsufB2+p6cPy1y7PTs1zuCI8LHPKXp6ehg1jzPzyFuUCesYQ8MjWCdsbfD0+BidXd2ML1h3ti1wBKfU8bk4lpFBerpMogt8/xQIabp7erGOT4q7vI6P21zRzUK8voEFx9bRoX76BoaYmLT5uJVnSpHl2pqVCcsoPb39WOZsAWFBTleP7fuVVvMY43NpvgddvNAsFgWEv8jx7CQmQ/OfjWYZ7qVn4DEv6D8b+8mHgnf1Al6efPQd7mbpbmuhZ/DJlVffIeEPOsqigNCpLeLEoX24BMhF4WQHubN3717O3nRGWEYyrCvkmoMn9ZUKDu7bR5yijm59KXv27EZWZvNsTvS7x/kr9/jy1GdcuuPJ6BQMt1Vz5sh+7nolMDFuRR7iyp59+0nKr6E0J45dOw9TY7R7pTwPRD41EGYtnRzetJ5IWSpfHtpDdEYB104cxD0+F0Nzq9hUpIe789DNkyM795CclsaRndtJrdRw++gOvvDJEFc4Xb9wjoiEZPIKlVzZsxVnv3huHN1LQGIyd059xj3/GPGjHsqiZNauWU5laxOHfr+SULltVdLzEMbrTPOpgdCvymT5ni9EmRVKPdl5w4Vr5w+wfvtuvCLTmJyaxPn2bUL8vdh+yVOM5+t8jkvxxRSEPsQhvIhhfQ7nrrvPyX2Kz/fuJig4hI2HbU6xquwgPjztJD7vq0ll45bPEHZ19NxzgohkzVw6+2kpJfDUQLB2VLNmzS5x70OJ2wUOO4XS19OBUV/Hht+vwjcwHAe3YFpUeazddkbk1eHsHrxz1KR63eFBTCGpoQ8IyVDB5Bg3Tx3kbqTgz9jPhlVb6ZmF7JBbHLgfQb+xkp0bdlDTbFu36LDpIOF2ICyl/hdoPTUQhB1O4z2vsm79OnYf+AK1pgmPa+c5cPAgJ87c4cHta/hJlcAkHteOsn79eg5/fpvRCZC4O+DkHcbd69cQ1pomu53jv/9f/4sDx48Tn19NRpQb69evY8fu0+ha29j9px/z0999wInz12ges+J14BTRaboF5u0XSyeBRQDBlrlR00D/3DKn4b5OamrqsM5MEuL1kLq5gSMBNI0N6rk9mME8MoK+MhtXX9tm2X3d7RiNeupra2mb27SiWddIz4i4MJ5mgwGdtpHaugYs09OYB4cwW+27pi6d+h9RWjQQHpF48mphXemTwfa7l1wCSw6El7y8dva+RQJ2IHyLYF63YDsQXjeNf0t57UD4FsG8bsF2ILxuGv+W8tqB8C2Ced2CnxoIs+IXVmbEfYaEvYbsx6sng8fdAeYB/9RAEBIKYLAfr7YM5gEwf14UEOYT288/HAnYgfDD0eUzlcQOhGcS3w8nsR0IPxxdPlNJ7EB4JvH9cBIvGghDAwPM7Yz7jdKYGOuhorKa5uZmhuZ35fzGmF8NnKTJYPza/kxfjfUs94NtJoZGHm3l+zS0untMdI/8BcfXiRE65lZdPQ3tFxn36YEwM4481J1Lly4SlJiDdWKUmpp6cUd1c38vdXVq0XU98tZxzt7ypVHdSFtXNy3trfT19qBWq7DMuRRMWUeor6tnWPRCn0VdV0tPX6+4qGVw2IxW3UhHVy8GnYaxyVlG+ztQNeoW9ldmxoJKVUd3dz/DI0NYJiYxDw8xMtSPSlXP+AyMWwdRq+ro6Ld5TOu1KgKvfYlaP0CbsYGmjkdL4Ya6mlDpbF+VHR8dZljwppmZYqC3D22jmt7RCZJT3EhWG+lq0mDoENzep2htMjI8t6RvqK+NnDg/In3jmRofokEn7CAvfJ9Cj76li3HzILX1jaK8Ok06OgdsoJqemKCtyYRlYoruVj3tA2aYmUBVW495cpaBDhO19TpGzRN0txkwtvcw2FqDo7sXY+NT9LQaaOuzeXItBlBPDYS26lwuXvcT85oZHybS8yG37twhJk6C25dXOP/FZTxjYnE8tAfvmBzyoqMI8XPi6NWrVFeUcPXMZ1xzjxedXAdbVVw5ewQH11AU0ihu3X6AQlhskhtJvJ8f505f5NjhQ1y+fImHwTIaSlL5bN8ewjLqxPyl/g+563SHWxe+wD3Yg6ImE5kBruIu79fPHOJBiAJJrANHz57lgbM/6dJ4nJyduHzqKNLYRB463sXhzj0a282Yu3U4Otzm1q27ZFU0Y+6owzdUQnFWKnHSDDzvX+biFQ8kOVH4Rfrj5eTIfXdP5CG+nDp4ltbRcSw9Bh7cucPtq2fwdvchyN2JwyfP4OPtw4VjB4hMyyP4zhkuPPCnLC+FsyePcOr8bdpHZ+ivy+bYwS/Iy0/l/KkTXL5+h3sPLnP84n1KS3Nxvu/EF0dP4hKgIF8WwMGj5wgL8WTDZ/vJy0kT05w8fxV9j20R0dOC4amB0Kev5OIFB3TGJpoaSnC4eJe62jJcrlzG7W4kvT2duMWEE+HiQm1TH5k+btxzuUVcANXTVgAAFT1JREFURQll8jj27dnHlr03xLe6IjGQY/t3c+jQYe7fuk1BlZHO1hoexDsT5h5KdZUJvzgnarVabl97gIuzC3u3buULJ6lYzocXrlBRU433rat4BrgRmpKM77XPuePgwbGDBzh0zAl/iQflnZ0U+Dhy+/QVcU1jlPNF7l64hiS1iETveyjKO+hU5XHDK458WTT3w3JF+n53PufgBUcq8tL54sg+9mw/iE9SEJeuHidRXoAiwQeH8+dIjssR4/fU5uB0L4iq3DicL3/JmX1Hue7gRGBoHGHeTly96UliTCjXrztw/dRxDh0/zW0HJxEI7UoFMTEVVOYHs3H/UZxcXAmLDeH2jWtcu3wGr6QsCiUR3Lzph8u9m3y6dhtufqG4JUSikPmz+cAx7tx1ovH7AoJQ4vrCZG7duI6soAp1ZR43btyhSmOgKvf/b+/Mn9q6sgTc/9RUzfwDUzM/TM30VPdMJ510O3biJTY2i43B7KsRIIEQCAQIse9iFQghNrHv+yJWgQCJXQKxGTDf1BPGdk86jpWOnVAlqi569XR179U53zv3vXt1zhnBvr9P//QE/U16ljfszHa109yuZ3RthcWhLhLEiVRWXgXfXB5uI0USR31HBxvmBRJi42ntHaB7upOhzmHMy9v0jLexarHQbhhAX19LojgFQ5fRKfilsXbiYgJ48tCLpWUzKUmxZGYqadXpSU5MQlvXS89EB0t7u8x2GFicnUIhj0cqkzs9twvSE1AU1lwFFj8/pr44nViZiq39q2lkqrOOvOouDrcWSJeKKa/V0D3axcTiLOrMJBQlDSxPjzA+OO0cDxcnaCtyiIqOwNA1jHG0i1RlIWarBXVuGnmlDbQ315GUrGJ6zkRlfjrV7Vf+m7alWQb6Fzk7PqA8R0Ft2zBzo13I5OkszC9SW6Dku1vfIc2ud8KUnJyD0WhCXZxNz8gMmmIl5fo3aQiuRuPSf5ctwk+2/vqE6VHjW1e4n6wPGMcWmDAusmv/cbO2b51iaePdfP5+u4aKcg5u8G/kzs9/PNz86f4GHc11eD54jChFie0Teem7DML5q2OatVW0Dxpx7KxSpa5i23bC6KCOtv5xevUVpOVWcvomU8fydD+5xWoW5ozoazWsbe7Qoatm0LjOmWODymIVPl5JtHaPM9Gh4y+3HtA5s8JQVyM6wzBCpFZ9XTkR4Z40DRsZMdRRVNPy1uVtbXGMKm0zjiMH7a0aiipraGzUUlXXxrkAx8UZPa1a9J0DGMfH2LPZMU7MYjItUlVWxpz1Cq7XFyfUq/Np6hlna2UaVXYBm3tHTIzoUeUUM2OyIPF/TExBE+aFCUoqNGwfvlPgYGstJdUt7O1sUpqnYnR5G+vkAHpDF9N9XTR39LG1ZqKispZt+yGTbTqyC0uYMy0QevsbSpomWZ4dpkbbwsl7PqKFymD8JHJ0TX2YpqdQF5ehb2ylorwE49qVj+b7F8XPPXYZhO3lUR48eEiFto2Y8EA8vb2ITUklVORJdfck9UXp3PrLN+jGt8FhRhzyks6+PjrL03kZJKWqQsF9Dy8CggMIjBBT29BATJicYqWKhuwcHnpHM2/doixLzO0HDxAnSsgvriJPEUuyVEK2soCSLCmVTcNwtkfg/Xt4P3uOWJJCkEiCIjGKgAARcfHBtBo3udxfw/vJI3LVWrJiQpldXCNLkoGmuYOwZx48ClA4ZdddqiI5o4yx0TYiJSLq6qqRpicTJHqGIjOL7JRM4kJfUtA8zVhHDR63vyI5s4rRrj7adRoiJQr6B8ZIexlJRW09SkUCib6+FGkMlMeEkF9SS2yEN17ePoikYuKfBaFU5SCRZyP2DUCrbeDF47t4eTyhRHfloCsMrFgVRkiykhmzlbpUKVJpOl4+3yNPkxOeUPjuCernEvDmcy6DcGpfIzUuBN/QIEIjQvDxD6FB30xKVTrLa6s8//4B//tfX1LZuQpHVqTh0dToGmkqSceg7We4S8039x+iKK4iI01BXnERL56KyVdk0lWrIzFWTmubjoAnd/jjvW+JTkogJ6eQpNgAUuQpZKVlkpkST33HJJwfEO7xEL/wOOrr60jVdrA+3IShpos6bTJlA3Nw7qBAEceToCAy5WLSZBJ8H0YRK5Vw6+uvuHMv0SmKwdoiJFIlnd164qRxFBbkkpKRiqRCyeb2Kto0BQXKAnLVepQRvnz9xe8RJecwOzruzFsVFZdEY3MXqsR48gqKUCiSyI2Lx7zpoC1Tyop5m9Q4H574hVOh1VCZlo19c5uU1CoKFGLK1OUEe9wnNDaRplYDnf1XT0Z56S/wjZPRPTBKjaKQeeMaWXWpGGeNhEZl/XogXBzZMDQ3MDq/yvnRLk06Pds2B+YNE6cXF0wO9dLePsCuTXBSgy3zDNX1jawsL7NtvQq2PdTVysTCOsf2DZrrqzH0TGNdNWO3OViZHmVswsjkyCBtA0PYj48Y6mpC29rKwek5c8OdNBgG3wrAtmlC39KB7cDB8sYWR7Ytti07WDeWsAo3fZev6GlrpGdsjvNXB7TqaugfNbO9YaazpYXxmatwO4IPRndzHT1j8zi2V5yZ5GwHJ6xYlzg6PsS6soZ9e5XungEW56ZoM7Sysrn95nqCxYlemjsG2duxUlNRzvzmAfvrK84clDsrixyeXHJ+sEWTvpWtPTvL09PO/FMm8y6ba0b6x2acMSBaugbY3tpgyigELQfL4igVFWqaDP2sLVtwHByybF1if3+f2TdrHm8H8Q8cuGwR3u/LOtJCf+fk+6c++rgmM5n8hqEP1z/dplDX+uE6H/Gu1tDC1ntZ/GyWZfYc7+b3H2uit6GNrqmPC53j2N1ix3GKeWGG3eOfuHO9PCBXIUXX/9vx43QZhMuLEzRFCpJyKxjUVdBY3kCzppSgED9kxUXUtGiwbFroqGmgUVeNX1AAhTXNTPXoiBBJmLUe8tph4t//9b+RZeXT0zPM8swU9XWt5EolBEXFMmFapaO6iBfPnxKsLGO6X09wcARdg1PU56Qjyyl7m0tKWH3TlmeRlFnMzHgvsS+jaBm6cotbGjYgigjju6Aoho1zKBLiqOvoJuLrPxCcUO5MGCqKTWBwepLcdAnZpY3Opx27dZ7UhGgefPOCmtYJavLlJGeWsHt0AeeHVGanEiNTMTrajyQ6jEqtAXGgJ3/xTaJ3bJTuoQGSooMIkioZ6NITEy/FZN2kU1NARJyUCeMUOSkx5NZ2srw4RnRoIMV1nc6+D3ctqJLjSS+s4eD9tLg/RusvdN5lEI7tFjISYvjzVw/JUORQLY0hUZbN4nQn3qEviJAnMLc0S1ZUHNJUBVWGXoqzxZTkZhIWHEH7yApcHhIZraCpTk2uqpxRQwvR4UkoEnPo7m0jTBxFtCKbhZk+wmNDCZPJmJufIuRlCLLYeESyLKxCQAXBw9KxQY48hlt3vkaaqUQSGkR5g/A8fUl8XDCDxnmkKbFUNzURGejLXc9YchPE9I+t0NFQgtfDBzwPlpGUGk1KZqFzOVeTnUpRywh1OYWEhcRw56E3gf4+GBZt7BubEInS2bPtEhMZSdvYHHmpcgLCEqk1zKJrKKFlehVtiRxd9zB1hVl8f+c24VFJpMZnsGPfZXKgHUl4MHe+9cY3PJGB6TniwkUsH0FvrZQ/P/Am0O85gysfZ41+CRZcBsG2ZuSZpyc+z15Snl1AZ42GssIcEkQv8BZL0VWW4OfvTYIshbKGBoybe/S05NPc3Ijv9w/IqhSmgwtkSfksW8xkJUfj7xWMTFZKk2aQ9fVZcmpqKcyUExoSSLSyEG11PqGh4RRWN9BQpsTDOwhpegbjK3uc7i4Q7P2A2099KGrUkxTiQ3iC2imbztp8XkZG4vtSQk6hkod3vyM4soCW2jzSswtIk73k7u1HJCZXUp6fjJdvKHtnsD7djUQST9DTaGfa4PhIPyRpRU4rdLq3glwUjUSRR22NmpioMFJzKulp1pIgUVHV3EhlTQm3vrpDkaaRyKAg7t55TKm6jcocObIMJeqiXB7de0BAgBSNpobo8BCkilKEbbAd0wgvnnmRnFf7jyVPd5EOl0EQVs9WZiaYmJrDdiCswF3S0VCAj6eH09QJN13rpllm5k28ci6UXGBeseBw7DtjLl2P7+LNIspUn4G2vglnvKNL59T6+mqN4OyY9Y3rAJrnrK5fxT7c21hj9+CEqVYN3YNXc+zpoYNt+z4X56dsWC28P/tbVlc5OL2as3c2Nt5kiTlnZ8/G67NTNje2nXGS9rY3WTaZ2bauc/DqHNNED4b+GedwLw73sLyfWf78mFXLVeJy25b17Sbawe4Oh68uEJKbrppXWN+2cXF2zObmjvPmds80SGhwvHODat++x/Gb3TfL6opzt/X1iR374SknB3vsfESOytOj/R8kX7+Wr6uvLoNwtDqKOjmTmaVFhHui3Y11hgb7aOvqZ/8ULi7OOHXsMjNtgstTzOO9xIirsR8fYNm4Ep4QF8G8auHi/Ij8lJfkaq7ySG9bzNje27I+Pdh3BuG80sbR20CYwmbXiL6ciuxquDjGunW1KHR4sMeWbZ9jZ0Csd2b1lWMX85snFkHRzmiPlyfs2t6F4dnctFIpTaC7fxLT4jgRnt+h6Zlld2udE4GjyzN2dm3O3UiL9QrKs0M7lo1NLnlNXUUefbMWp7Vbt159z1cHO6xvvYvKtjw3SrzvM3p759nZtHLw6h2yx/YtWjQZVLW0IwQMFYDYXRpHVViD4/iYtZVlDoXt1Dd/+9sbVKnzKO0xIvRjXn/3BHNdx5VX10FYG6ValkpJRxUN+joSYkX4R4vIL6tGrZtkcqQaVUkJbWWN5GRlEBMahF9QHjNjBp498aC4vo3SHDkv41OZmTNRnScjOFZBU2sbsdHhiCTprDnOudiYIfDBU6JFYtQaDfkqGeHRsdRq61HJEwkN8CQjTUVZtpzHT/2pqK4jLCII/4Dn+PgGEhgShnHziMsDC8+9H5GlbqGtXs3Txx4oizUoFX5EZ9U4rUd/fSFRoiiCfXypbK6luDoT7y9ukaHKIcjfl8SsfIrF0STIc6kuUuLl6U1hZRWKoEB8A4LJKdfwzPMPiPLUqFUpeD/1I7+4BP/nT8kqa3bqwzTSSqw4njBfD1rah8hPi8HbX8TuK9g3jyMWxfDC7yGl2ja0pQp8AyPIV8r5j//xZHHFREpcAAEiuRPKrYUh4l7G4OP/HGV1HbkZEsIiXtI29uHMux8Cw2UQDs3DVIgTydSqCImPoL5njJKCFJLS0slU1VFemkh8ehbFMTJ8RUrmZ8YID5CTly3M0fe4e9ePKHk+Nrudmb4Owl4856sv7uP9Igb9wDQ5iWJa5vd5vTaEKErB3FgPXnf+SlRuObOTnXz/6FvS0muY6aklMTSIp996OHf4UuXpJKqbWOjWUFXYSHVNIiV9c1ye2MhMkSCRSXn0+BHPQiJJVqqIV0UxZL3a21CGh9EzPkueKJS0gjQKm8qoV+QiSw7n3tNAxIo0FFHRzBuXCPO/RUCECFlmCqpYOVbzGslSNYrSFJqH+vB69BWRojiSs3NRpcsIF0uxnYNBlYRaN0SDKpbstCziQ57yx9//kdl9WGjNRZFXT299DimpaaRLwvjTX78kKaeQNJWO5ak2gp968G/f3Gb7EgZ1StKqWmitz8MvOgh5eS2DhnJiCjQf0vUH33MZhNMdE/2aenTDbRiNU2QkxPHl/Vs0jU1RqZThHylG19HHaMcInfoqokJDycrVo6urIio8lkb9EF26Ip76RjPQ149cKiE5uZDpqSnk8eGkF9YhROo9Nk/w/NYTIuOSmDCt0F6bS2h0IovLK9SXKwkJeYGuuZvRbj3iFBUmswn90Dib8yNM9E3RP6il37QJFw7Kc+RIVflMTAyQJBYzblylc6iOpb2rRS/zdDciUThJ0lQ6Bgx0jXfTqdGzurpMWmI8zcPzzLTpsGwesTzWTmx8MtNLyww1Njp/tNLYNMZwbx0ZRRqGOhqRJKtYWllFnZtCQmYewpLF4c6Sc3c0OiaG7tZWMhNFJCnSsDhec364S056EmHR4bR0tlGcKScyRc7w7AzF6Vno9XWkiGMR5+Ziew2v7FtkJyfyIjKWzsl59GUZRIiSWdl6N9V9UOt/502XQfg7bdDYoGJs8+NjJp5tTqAqqfp7Tb09ZzPNUPsmV+Tbk+6DTyYB10E4O6S/Rc+iZYeFsR66Ruc5OzmgUathyWpjfXYIdWkl47NrrMyN0mjo4cC+htf9JzRNr7FmHKSptfdthNZP9s3cDbskAZdBOLNO8OKOJ/VNNTz2eIyfn79zA+exTwiGlmZiJXKKMmQ8C1XQo1dz784d8ivqee4ZglrbgI/HYzw8HtI8eb3G79J43ZU/kQRcBuFweYBSeRHmhT7+evsOcUkZNBv0iIKfERQZgji1iKbaUoKCxUSHR/DlH74go7ARlUyJurqKu/fuEZcoo6ahhZmlzU/0tdzNuioBl0E4P9xhYeLqp2KTvS009UywYzGhLi9nYW2dFnU2HndvEyUvZ2K4j5rqRtatByxO9NA9NMXiZC9NHYMszkwxs+gGwVWFfar6LoPwUwPpbqwmJSOblX/gp9U/1Yf7/V9eAr84CL/8EN0tfg4JuEH4HFK+AX24QbgBSvocQ3SD8DmkfAP6cINwA5T0OYboBuFzSPkG9OEyCO6oajcvitr/j3z3i0VVuwGAu4foogRctggutu+ufkMk4AbhhijqUw/TDcKnlvANad8Nwg1R1KcephuETy3hG9K+G4QboqhPPUw3CJ9awjekfTcIN0RRn3qYPwBBOHF8fMzh4SE2m53Xr99513zqwbjb//Uk8D4IwvHvrkE4Ojpyg/Dr6eWz9/zq1SscDofTCPwABLvdbRE+u0Z+pQ4FEIRZQJgN3oJwcnKCYBHcIPxKWvkVur0GQdD934AgkCHE6fmYewTLDsytwqrgYfbOwfdX+DruLn+uBM7OzpwX/w9AEE58CITTM6jugD+FwL/ch3/6Dv75HvynP2TXg+PjPeB+7tjdn/sFJSCAIFz8b0EQTIRgGoQTws3DwcHB2yKAcV2sm/to2vepbLWj7bTT0HX1Wt1mp7LFzsqa3Tm1CNOLu/wWZLCP3f5Of4Ie3+nW8TfWQGDgd8K/axgEIARKhPsF4UZCKAIcQjk6dHB57oDXDqfHseB1fF0uL4SGr+pd13e//rbkca1PQbfvW4Jr/f8ABMEyCEWo/GNFaMxdfrsy+DG9XQNwPR0IF/41CP8H74xvd0ScREcAAAAASUVORK5CYII=;" vertex="1" parent="1">
          <mxGeometry x="15" y="90" width="130" height="221" as="geometry" />
        </mxCell>
        <mxCell id="EX8O4b1PGBb1F0dFALzU-29" value="" style="strokeColor=#6c8ebf;shadow=1;strokeWidth=1;rounded=1;absoluteArcSize=1;arcSize=2;fillColor=#dae8fc;" vertex="1" parent="1">
          <mxGeometry x="424" y="-220" width="186" height="100" as="geometry" />
        </mxCell>
        <mxCell id="EX8O4b1PGBb1F0dFALzU-30" value="&lt;div&gt;&lt;ul&gt;&lt;li&gt;&lt;span&gt;Sistema CADU&lt;/span&gt;&lt;/li&gt;&lt;/ul&gt;&lt;/div&gt;" style="dashed=0;connectable=0;html=1;fillColor=#757575;strokeColor=none;shape=mxgraph.gcp2.application_system;part=1;labelPosition=right;verticalLabelPosition=middle;align=left;verticalAlign=middle;spacingLeft=5;fontSize=12;" vertex="1" parent="EX8O4b1PGBb1F0dFALzU-29">
          <mxGeometry y="0.5" width="32" height="32" relative="1" as="geometry">
            <mxPoint x="5" y="-16" as="offset" />
          </mxGeometry>
        </mxCell>
        <mxCell id="EX8O4b1PGBb1F0dFALzU-39" value="{agencia,&lt;br&gt;conta,&lt;br&gt;digitoConta}" style="whiteSpace=wrap;html=1;shape=mxgraph.basic.document;fillColor=#d5e8d4;strokeColor=#82b366;" vertex="1" parent="1">
          <mxGeometry x="420" y="-88" width="70" height="50" as="geometry" />
        </mxCell>
        <mxCell id="EX8O4b1PGBb1F0dFALzU-58" value="" style="endArrow=none;html=1;" edge="1" parent="1">
          <mxGeometry width="50" height="50" relative="1" as="geometry">
            <mxPoint x="444" y="20" as="sourcePoint" />
            <mxPoint x="444" y="-35" as="targetPoint" />
          </mxGeometry>
        </mxCell>
        <mxCell id="EX8O4b1PGBb1F0dFALzU-59" value="" style="endArrow=classic;html=1;" edge="1" parent="1">
          <mxGeometry width="50" height="50" relative="1" as="geometry">
            <mxPoint x="444" y="-88" as="sourcePoint" />
            <mxPoint x="444" y="-118" as="targetPoint" />
          </mxGeometry>
        </mxCell>
        <mxCell id="EX8O4b1PGBb1F0dFALzU-60" value="" style="endArrow=none;html=1;exitX=0.414;exitY=-0.08;exitDx=0;exitDy=0;exitPerimeter=0;" edge="1" parent="1">
          <mxGeometry width="50" height="50" relative="1" as="geometry">
            <mxPoint x="589.98" y="-93" as="sourcePoint" />
            <mxPoint x="590" y="-116" as="targetPoint" />
          </mxGeometry>
        </mxCell>
        <mxCell id="EX8O4b1PGBb1F0dFALzU-61" value="{numero&lt;br&gt;Celular,&lt;br&gt;Envio&lt;br&gt;MSG}" style="whiteSpace=wrap;html=1;shape=mxgraph.basic.document;fillColor=#d5e8d4;strokeColor=#82b366;" vertex="1" parent="1">
          <mxGeometry x="561" y="-90" width="69" height="50" as="geometry" />
        </mxCell>
        <mxCell id="EX8O4b1PGBb1F0dFALzU-65" value="" style="endArrow=classic;html=1;entryX=0.94;entryY=-0.036;entryDx=0;entryDy=0;entryPerimeter=0;" edge="1" parent="1">
          <mxGeometry width="50" height="50" relative="1" as="geometry">
            <mxPoint x="594" y="-35" as="sourcePoint" />
            <mxPoint x="594.1599999999999" y="23.019999999999982" as="targetPoint" />
          </mxGeometry>
        </mxCell>
        <mxCell id="EX8O4b1PGBb1F0dFALzU-68" value="&lt;h1&gt;Chamar sistema CADU&lt;/h1&gt;&lt;p&gt;Realizando a chamada para sistema CADU para capturar numero de celular do cliente e consultar se cliente autorizou receber sms.&lt;/p&gt;" style="text;html=1;strokeColor=none;fillColor=none;spacing=5;spacingTop=-20;whiteSpace=wrap;overflow=hidden;rounded=0;" vertex="1" parent="1">
          <mxGeometry x="430" y="-390" width="180" height="160" as="geometry" />
        </mxCell>
        <mxCell id="EX8O4b1PGBb1F0dFALzU-87" value="" style="edgeStyle=none;rounded=1;orthogonalLoop=1;jettySize=auto;html=1;fontColor=#000000;" edge="1" parent="1" source="EX8O4b1PGBb1F0dFALzU-70" target="EX8O4b1PGBb1F0dFALzU-74">
          <mxGeometry relative="1" as="geometry" />
        </mxCell>
        <mxCell id="EX8O4b1PGBb1F0dFALzU-70" value="" style="shape=image;html=1;verticalAlign=top;verticalLabelPosition=bottom;labelBackgroundColor=#ffffff;imageAspect=0;aspect=fixed;image=https://cdn4.iconfinder.com/data/icons/wirecons-free-vector-icons/32/code-128.png;fillColor=#DDDBFC;" vertex="1" parent="1">
          <mxGeometry x="505" y="127" width="30" height="30" as="geometry" />
        </mxCell>
        <mxCell id="EX8O4b1PGBb1F0dFALzU-77" value="" style="edgeStyle=none;rounded=1;orthogonalLoop=1;jettySize=auto;html=1;" edge="1" parent="1" source="EX8O4b1PGBb1F0dFALzU-74" target="EX8O4b1PGBb1F0dFALzU-75">
          <mxGeometry relative="1" as="geometry" />
        </mxCell>
        <mxCell id="EX8O4b1PGBb1F0dFALzU-84" value="" style="edgeStyle=none;rounded=1;orthogonalLoop=1;jettySize=auto;html=1;" edge="1" parent="1" source="EX8O4b1PGBb1F0dFALzU-74" target="EX8O4b1PGBb1F0dFALzU-83">
          <mxGeometry relative="1" as="geometry" />
        </mxCell>
        <mxCell id="EX8O4b1PGBb1F0dFALzU-74" value="&lt;b&gt;criar a logica para verificar no retorno do CADU se cliente autrizou receber sms ou não.&lt;/b&gt;" style="html=1;shadow=0;dashed=0;shape=mxgraph.bootstrap.rrect;rSize=5;strokeColor=#999999;strokeWidth=1;fillColor=#FFFFFF;fontColor=#6C767D;whiteSpace=wrap;align=left;verticalAlign=middle;spacingLeft=10;fontSize=14;spacing=10;labelBackgroundColor=none;" vertex="1" parent="1">
          <mxGeometry x="440" y="157" width="170" height="110" as="geometry" />
        </mxCell>
        <mxCell id="EX8O4b1PGBb1F0dFALzU-75" value="FIM" style="ellipse;fillColor=#a20025;strokeColor=#6F0000;fontColor=#ffffff;" vertex="1" parent="1">
          <mxGeometry x="256" y="197" width="30" height="30" as="geometry" />
        </mxCell>
        <mxCell id="EX8O4b1PGBb1F0dFALzU-78" value="&lt;b&gt;&lt;font color=&quot;#ff0000&quot;&gt;Se cliente não&amp;nbsp;autorizou&lt;/font&gt;&lt;/b&gt;" style="text;html=1;align=center;verticalAlign=middle;resizable=0;points=[];autosize=1;" vertex="1" parent="1">
          <mxGeometry x="288" y="190" width="150" height="20" as="geometry" />
        </mxCell>
        <mxCell id="EX8O4b1PGBb1F0dFALzU-83" value="&lt;b&gt;criar a lógica que vai tratar o formato padrão de mensagem.&lt;/b&gt;" style="html=1;shadow=0;dashed=0;shape=mxgraph.bootstrap.rrect;rSize=5;strokeColor=#999999;strokeWidth=1;fillColor=#FFFFFF;fontColor=#6C767D;whiteSpace=wrap;align=left;verticalAlign=middle;spacingLeft=10;fontSize=14;spacing=10;" vertex="1" parent="1">
          <mxGeometry x="728" y="157" width="170" height="110" as="geometry" />
        </mxCell>
        <mxCell id="EX8O4b1PGBb1F0dFALzU-85" value="&lt;b&gt;&lt;font&gt;Se cliente autorizou&lt;/font&gt;&lt;/b&gt;" style="text;html=1;align=center;verticalAlign=middle;resizable=0;points=[];autosize=1;" vertex="1" parent="1">
          <mxGeometry x="603" y="187" width="130" height="20" as="geometry" />
        </mxCell>
        <mxCell id="EX8O4b1PGBb1F0dFALzU-89" value="" style="shape=image;html=1;verticalAlign=middle;verticalLabelPosition=middle;labelBackgroundColor=#ffffff;imageAspect=0;aspect=fixed;image=https://cdn4.iconfinder.com/data/icons/wirecons-free-vector-icons/32/code-128.png;fillColor=#DDDBFC;labelPosition=center;align=center;" vertex="1" parent="1">
          <mxGeometry x="797" y="127" width="30" height="30" as="geometry" />
        </mxCell>
        <mxCell id="EX8O4b1PGBb1F0dFALzU-92" value="" style="endArrow=none;dashed=1;html=1;dashPattern=1 3;strokeWidth=2;fontColor=#000000;exitX=0.5;exitY=0;exitDx=0;exitDy=0;" edge="1" parent="1">
          <mxGeometry width="50" height="50" relative="1" as="geometry">
            <mxPoint x="520" y="124" as="sourcePoint" />
            <mxPoint x="520" y="77" as="targetPoint" />
          </mxGeometry>
        </mxCell>
        <mxCell id="EX8O4b1PGBb1F0dFALzU-98" value="" style="endArrow=none;dashed=1;html=1;dashPattern=1 3;strokeWidth=2;fontColor=#000000;" edge="1" parent="1">
          <mxGeometry width="50" height="50" relative="1" as="geometry">
            <mxPoint x="613" y="50" as="sourcePoint" />
            <mxPoint x="713" y="50" as="targetPoint" />
          </mxGeometry>
        </mxCell>
        <mxCell id="EX8O4b1PGBb1F0dFALzU-106" value="verificar qual tipo plataforma produto(BAIXA, ALATA ou ALATA Agendada)" style="html=1;shadow=0;dashed=0;shape=mxgraph.bootstrap.rrect;rSize=5;strokeColor=#999999;strokeWidth=1;fillColor=#FFFFFF;fontColor=#6C767D;whiteSpace=wrap;align=left;verticalAlign=middle;spacingLeft=10;fontSize=14;spacing=10;rounded=0;labelBackgroundColor=none;" vertex="1" parent="1">
          <mxGeometry x="720" width="170" height="105.76" as="geometry" />
        </mxCell>
        <mxCell id="EX8O4b1PGBb1F0dFALzU-108" value="" style="shape=image;html=1;verticalAlign=top;verticalLabelPosition=bottom;labelBackgroundColor=#ffffff;imageAspect=0;aspect=fixed;image=https://cdn3.iconfinder.com/data/icons/letters-and-numbers-1/32/number_1_blue-128.png;rounded=0;shadow=0;fillColor=#DDDBFC;fontColor=#000000;align=right;" vertex="1" parent="1">
          <mxGeometry x="500" y="90" width="20" height="20" as="geometry" />
        </mxCell>
        <mxCell id="EX8O4b1PGBb1F0dFALzU-109" value="" style="shape=image;html=1;verticalAlign=top;verticalLabelPosition=bottom;labelBackgroundColor=#ffffff;imageAspect=0;aspect=fixed;image=https://cdn3.iconfinder.com/data/icons/letters-and-numbers-1/32/number_2_blue-128.png;rounded=0;shadow=0;fillColor=#DDDBFC;fontColor=#000000;align=right;" vertex="1" parent="1">
          <mxGeometry x="650" y="22" width="20" height="20" as="geometry" />
        </mxCell>
      </root>
    </mxGraphModel>
  </diagram>
</mxfile>
